2.mot
version=1
nRows=17
nColumns=37
inDegrees=yes
endheader
time	ground_force_vx	ground_force_vy	ground_force_vz	ground_force_px	ground_force_py	ground_force_pz	1_ground_force_vx	1_ground_force_vy	1_ground_force_vz	1_ground_force_px	1_ground_force_py	1_ground_force_pz	2_ground_force_vx	2_ground_force_vy	2_ground_force_vz	2_ground_force_px	2_ground_force_py	2_ground_force_pz	3_ground_force_vx	3_ground_force_vy	3_ground_force_vz	3_ground_force_px	3_ground_force_py	3_ground_force_pz	ground_torque_x	ground_torque_y	ground_torque_z	1_ground_torque_x	1_ground_torque_y	1_ground_torque_z	2_ground_torque_x	2_ground_torque_y	2_ground_torque_z	3_ground_torque_x	3_ground_torque_y	3_ground_torque_z
0.000000	1.116509	208.660910	-25.018599	0.112744	0.000000	-0.516221	-1.383080	165.260300	26.106566	0.086924	0.000000	-0.169098	1.903967	18.087715	-1.759702	0.000000	0.000000	0.000000	0.079800	1.252297	-0.448879	0.000000	0.000000	0.000000	0.000000	-2.476459	0.000000	0.000000	2.215945	0.000000	0.000000	0.000000	0.000000	0.000000	0.000000	0.000000
0.006803	2.316107	422.713633	-50.583236	0.112509	0.000000	-0.516152	-2.672928	335.933683	53.164138	0.086824	0.000000	-0.169252	3.883560	37.793436	-3.393266	0.906735	0.000000	-0.202604	0.339089	1.783614	-0.902248	0.000000	0.000000	0.000000	0.000000	-5.017681	0.000000	0.000000	4.559201	0.000000	0.000000	-0.073442	0.000000	0.000000	0.000000	0.000000
0.013605	2.024777	369.661898	-44.381917	0.112281	0.000000	-0.516085	-2.313195	295.634340	46.586715	0.086720	0.000000	-0.169404	3.166525	32.297904	-2.920111	0.908640	0.000000	-0.205117	0.114896	0.614583	-0.682425	0.000000	0.000000	0.000000	0.000000	-4.434114	0.000000	0.000000	3.988133	0.000000	0.000000	-0.028630	0.000000	0.000000	0.000000	0.000000
0.020408	2.226509	396.568965	-47.544787	0.112064	0.000000	-0.516022	-2.719245	317.057863	49.797106	0.086612	0.000000	-0.169553	3.359409	32.886268	-3.189457	0.910452	0.000000	-0.207498	-0.017561	0.617870	-0.602711	0.000000	0.000000	0.000000	0.000000	-4.782287	0.000000	0.000000	4.194148	0.000000	0.000000	0.014668	0.000000	0.000000	0.000000	0.000000
0.027211	2.259452	380.005040	-45.419829	0.111862	0.000000	-0.515966	-2.843892	303.056835	47.770186	0.086499	0.000000	-0.169699	3.445281	30.798243	-2.854278	0.912128	0.000000	-0.209688	0.064269	1.496659	-0.448184	0.000000	0.000000	0.000000	0.000000	-4.580726	0.000000	0.000000	4.037150	0.000000	0.000000	0.012398	0.000000	0.000000	0.000000	0.000000
0.034014	2.472271	390.790618	-46.684901	0.111680	0.000000	-0.515917	-2.959360	312.760794	49.229070	0.086379	0.000000	-0.169841	3.531153	32.324386	-2.893383	0.913629	0.000000	-0.211641	0.086697	1.757954	-0.494234	0.000000	0.000000	0.000000	0.000000	-4.665275	0.000000	0.000000	4.166505	0.000000	0.000000	-0.025165	0.000000	0.000000	0.000000	0.000000
0.040816	2.607691	383.739968	-45.668718	0.111519	0.000000	-0.515876	-2.826262	308.097096	48.103531	0.086250	0.000000	-0.169976	3.269949	31.981779	-2.927915	0.914928	0.000000	-0.213322	0.080978	0.785938	-0.545250	0.000000	0.000000	0.000000	0.000000	-4.524511	0.000000	0.000000	4.055274	0.000000	0.000000	-0.079940	0.000000	0.000000	0.000000	0.000000
0.047619	2.500023	387.407441	-46.203182	0.111382	0.000000	-0.515845	-2.958366	311.097559	48.368025	0.086112	0.000000	-0.170105	3.194196	30.732566	-2.818568	0.916005	0.000000	-0.214714	0.107775	-0.198464	-0.453969	0.000000	0.000000	0.000000	0.000000	-4.621956	0.000000	0.000000	4.130556	0.000000	0.000000	-0.113119	0.000000	0.000000	0.000000	0.000000
0.054422	2.051228	385.044370	-46.066050	0.111270	0.000000	-0.515821	-3.078295	309.752860	48.085416	0.085964	0.000000	-0.170228	3.206463	30.352675	-2.967995	0.916851	0.000000	-0.215811	-0.045526	-0.116534	-0.442921	0.000000	0.000000	0.000000	0.000000	-4.655890	0.000000	0.000000	4.130047	0.000000	0.000000	-0.064508	0.000000	0.000000	0.000000	0.000000
0.061224	1.942843	387.659298	-46.282065	0.111181	0.000000	-0.515805	-3.016499	311.977296	48.199599	0.085806	0.000000	-0.170343	3.297816	30.982095	-3.313057	0.917469	0.000000	-0.216620	-0.191756	1.248296	-0.709404	0.000000	0.000000	0.000000	0.000000	-4.610576	0.000000	0.000000	4.114052	0.000000	0.000000	0.030693	0.000000	0.000000	0.000000	0.000000
0.068027	2.184826	386.676153	-46.224359	0.111116	0.000000	-0.515795	-2.884931	311.823899	48.111228	0.085636	0.000000	-0.170450	3.126443	29.079100	-3.082111	0.917869	0.000000	-0.217160	0.003088	1.999763	-0.841707	0.000000	0.000000	0.000000	0.000000	-4.584817	0.000000	0.000000	4.090834	0.000000	0.000000	0.068266	0.000000	0.000000	0.000000	0.000000
0.074830	2.385444	385.528599	-46.200211	0.111072	0.000000	-0.515791	-2.674824	312.377752	48.262822	0.085458	0.000000	-0.170549	3.271610	29.847852	-2.886321	0.918074	0.000000	-0.217459	0.163192	2.162163	-0.681388	0.000000	0.000000	0.000000	0.000000	-4.614943	0.000000	0.000000	4.111168	0.000000	0.000000	0.013295	0.000000	0.000000	0.000000	0.000000
0.081633	2.507636	385.572395	-46.189392	0.111045	0.000000	-0.515790	-2.526042	312.932656	48.433323	0.085270	0.000000	-0.170642	3.450190	31.717271	-2.954261	0.918109	0.000000	-0.217549	0.058236	0.463184	-0.459364	0.000000	0.000000	0.000000	0.000000	-4.625558	0.000000	0.000000	4.132045	0.000000	0.000000	-0.020770	0.000000	0.000000	0.000000	0.000000
0.088435	2.500573	385.472674	-46.167900	0.111032	0.000000	-0.515791	-2.692495	311.667819	48.672042	0.085076	0.000000	-0.170727	3.148618	30.801391	-3.016579	0.918007	0.000000	-0.217467	-0.020513	-1.516245	-0.387443	0.000000	0.000000	0.000000	0.000000	-4.640578	0.000000	0.000000	4.187213	0.000000	0.000000	-0.053750	0.000000	0.000000	0.000000	0.000000
0.095238	2.416519	385.119262	-46.054521	0.111029	0.000000	-0.515793	-2.929307	311.711315	48.754388	0.084879	0.000000	-0.170806	3.077077	31.929763	-3.140025	0.917802	0.000000	-0.217252	0.042073	-0.219122	-0.421449	0.000000	0.000000	0.000000	0.000000	-4.619339	0.000000	0.000000	4.217842	0.000000	0.000000	-0.089887	0.000000	0.000000	0.000000	0.000000
0.102041	2.364704	385.441608	-46.048759	0.111030	0.000000	-0.515795	-3.157719	312.758072	48.506673	0.084679	0.000000	-0.170881	3.174570	33.933404	-2.967305	0.917529	0.000000	-0.216940	-0.035964	1.659134	-0.462513	0.000000	0.000000	0.000000	0.000000	-4.565303	0.000000	0.000000	4.195113	0.000000	0.000000	-0.028638	0.000000	0.000000	0.000000	0.000000
0.108844	2.455127	385.031336	-45.981514	0.111031	0.000000	-0.515796	-3.426652	311.936255	48.256019	0.084481	0.000000	-0.170952	3.155307	32.724628	-2.646928	0.917222	0.000000	-0.216569	-0.175426	1.516456	-0.539759	0.000000	0.000000	0.000000	0.000000	-4.520586	0.000000	0.000000	4.212844	0.000000	0.000000	-0.006230	0.000000	0.000000	0.000000	0.000000
